<?xml version="1.0" standalone="no"?>
<!DOCTYPE svg PUBLIC "-//W3C//DTD SVG 20010904//EN"
 "http://www.w3.org/TR/2001/REC-SVG-20010904/DTD/svg10.dtd">
<svg version="1.0" xmlns="http://www.w3.org/2000/svg"
 width="1654.000000pt" height="2339.000000pt" viewBox="0 0 1654.000000 2339.000000"
 preserveAspectRatio="xMidYMid meet">

<g transform="translate(0.000000,2339.000000) scale(0.100000,-0.100000)"
fill="#000000" stroke="none">
<path d="M10015 20981 c-224 -65 -374 -243 -293 -346 48 -62 182 -84 308 -50
130 34 265 128 304 210 39 81 12 158 -64 189 -53 21 -177 20 -255 -3z"/>
<path d="M4081 20969 c-493 -67 -1056 -410 -1274 -777 -86 -147 -122 -263
-115 -378 18 -307 387 -442 912 -333 211 43 423 128 497 199 82 78 38 95 -134
52 -167 -42 -269 -55 -385 -50 -119 5 -179 29 -220 91 -25 37 -27 49 -26 131
0 74 6 105 29 166 56 152 172 319 330 477 235 233 465 353 585 303 64 -27 40
-71 -187 -349 -74 -91 -140 -175 -145 -187 -38 -84 77 -140 233 -114 203 34
396 212 461 423 49 161 -25 276 -212 331 -68 20 -251 28 -349 15z"/>
<path d="M5745 20970 c-263 -30 -615 -155 -615 -219 0 -18 32 -20 122 -5 136
21 334 29 385 15 53 -15 83 -45 83 -86 0 -71 -101 -236 -348 -569 -261 -351
-328 -474 -303 -557 28 -92 156 -122 423 -100 220 18 396 72 447 137 37 47 29
61 -39 66 -78 6 -95 21 -86 80 7 47 37 103 221 413 243 411 302 578 243 695
-28 55 -84 95 -163 115 -74 19 -263 27 -370 15z"/>
<path d="M5457 20626 c-174 -76 -483 -270 -712 -448 -144 -111 -385 -348 -444
-436 -48 -71 -101 -179 -101 -204 0 -57 117 -80 288 -59 142 17 164 36 177
151 8 72 41 151 98 236 79 116 71 111 188 124 206 22 331 59 344 100 13 40 -6
45 -163 42 l-147 -4 79 74 c155 143 326 277 472 371 67 42 90 67 77 81 -16 15
-85 3 -156 -28z"/>
<path d="M7468 20476 c-95 -27 -276 -126 -347 -190 -22 -19 -21 -16 8 34 63
108 67 119 50 135 -13 14 -50 14 -282 7 -310 -9 -287 0 -337 -127 -44 -113
-159 -299 -343 -557 -201 -283 -214 -305 -195 -324 13 -13 37 -13 197 1 100 8
217 15 260 15 46 0 84 5 94 13 10 6 118 163 240 347 l223 335 74 3 c90 4 157
-16 219 -64 67 -52 98 -48 173 24 110 105 217 269 203 312 -4 11 -15 25 -27
31 -32 17 -157 20 -210 5z"/>
<path d="M13225 20483 c-90 -13 -216 -53 -367 -117 l-37 -16 21 46 c33 76 36
76 -274 66 -297 -9 -296 -8 -319 -81 -46 -144 -358 -630 -428 -665 -35 -18
-191 -62 -270 -76 -86 -15 -111 -8 -111 31 0 60 55 149 303 489 167 229 194
274 177 295 -16 20 -504 9 -537 -11 -13 -8 -34 -36 -47 -62 -34 -67 -165 -263
-294 -441 -61 -83 -123 -171 -138 -195 -32 -50 -48 -56 -155 -56 -56 0 -73 4
-89 20 -52 52 -4 141 264 494 143 190 162 224 143 250 -11 15 -39 16 -268 8
-189 -6 -261 -11 -273 -21 -8 -7 -31 -45 -50 -85 -19 -39 -79 -132 -132 -206
-119 -165 -208 -300 -240 -362 -20 -40 -31 -49 -80 -68 -84 -31 -235 -69 -308
-76 -56 -6 -65 -4 -74 12 -12 23 3 71 40 129 14 22 107 150 206 285 189 255
248 352 236 384 -7 18 -20 19 -282 12 -159 -4 -284 -12 -298 -18 -16 -7 -31
-30 -45 -67 -11 -31 -36 -86 -56 -123 -34 -65 -37 -68 -96 -87 -101 -33 -259
-52 -271 -33 -2 4 20 39 50 77 61 78 119 176 129 218 l7 27 -178 -1 c-99 0
-201 -4 -229 -7 -48 -7 -51 -9 -80 -60 -108 -191 -240 -365 -391 -515 -208
-208 -324 -242 -324 -95 0 126 125 339 315 538 70 72 95 106 95 125 l0 25
-272 -6 c-197 -5 -280 -11 -299 -20 -87 -44 -311 -389 -373 -575 -35 -104 -43
-200 -23 -270 31 -105 136 -189 237 -189 245 1 869 298 1132 539 l67 62 118 4
c72 2 146 11 190 22 l72 19 -46 -65 c-26 -36 -81 -111 -124 -166 -168 -219
-190 -277 -129 -329 37 -31 83 -44 175 -52 144 -12 445 46 695 136 63 22 123
43 133 47 16 5 18 1 12 -28 -7 -40 17 -93 55 -121 85 -62 331 -38 622 61 l87
29 6 -29 c8 -36 55 -76 103 -86 54 -12 254 -8 347 6 113 18 256 55 385 100
l111 39 -21 -31 c-34 -51 -43 -75 -36 -92 5 -14 32 -15 263 -10 145 4 267 11
280 17 11 6 131 176 265 378 260 394 248 381 336 382 150 2 119 -87 -172 -491
-116 -161 -158 -234 -154 -263 l3 -23 240 4 c132 2 248 8 257 13 10 5 27 26
38 47 10 21 75 123 143 227 130 198 184 288 236 391 21 43 38 64 54 67 101 21
147 14 161 -26 13 -38 -29 -120 -172 -335 -180 -271 -201 -322 -149 -371 74
-69 386 -41 707 63 217 71 351 147 337 189 -7 20 -70 10 -172 -27 -113 -41
-227 -64 -268 -53 -32 8 -43 40 -27 81 6 16 66 110 132 209 172 255 224 373
198 451 -44 134 -276 119 -676 -43 l-52 -21 -11 44 c-22 88 -122 128 -266 108z"/>
</g>
</svg>
