<?xml version="1.0" standalone="no"?>
<!DOCTYPE svg PUBLIC "-//W3C//DTD SVG 20010904//EN"
 "http://www.w3.org/TR/2001/REC-SVG-20010904/DTD/svg10.dtd">
<svg version="1.0" xmlns="http://www.w3.org/2000/svg"
 width="3090.000000pt" height="650.000000pt" viewBox="0 0 3090.000000 650.000000"
 preserveAspectRatio="xMidYMid meet">

<g transform="translate(0.000000,650.000000) scale(0.100000,-0.100000)"
fill="#000000" stroke="none">
<path d="M17830 3929 c-96 -25 -198 -74 -277 -132 -114 -85 -179 -205 -155
-285 28 -91 117 -136 272 -136 147 0 286 46 428 142 135 92 204 232 158 321
-22 41 -80 88 -123 100 -62 17 -219 12 -303 -10z"/>
<path d="M9870 3906 c-549 -79 -1198 -427 -1526 -818 -316 -378 -401 -733
-228 -963 125 -168 364 -255 696 -255 419 0 1038 193 1138 355 46 75 -10 83
-218 31 -244 -61 -422 -82 -566 -66 -141 16 -212 58 -254 149 -87 186 35 518
311 848 207 246 505 482 694 549 73 25 189 33 237 14 89 -33 46 -109 -299
-525 -132 -159 -155 -193 -155 -230 0 -79 81 -120 235 -119 167 1 318 65 455
192 167 154 285 390 266 531 -19 143 -127 243 -314 292 -101 27 -338 34 -472
15z"/>
<path d="M12071 3905 c-266 -34 -666 -164 -748 -244 -25 -24 -31 -60 -10 -62
27 -4 97 3 187 17 222 35 439 34 515 -2 138 -65 57 -241 -390 -844 -297 -400
-390 -549 -416 -664 -23 -104 25 -178 141 -214 77 -24 417 -23 578 1 270 42
472 137 472 223 0 27 -11 31 -102 37 -79 5 -102 26 -96 88 7 64 43 137 210
419 365 617 426 746 435 930 5 83 3 101 -16 141 -38 81 -115 133 -242 164 -91
23 -372 28 -518 10z"/>
<path d="M11776 3470 c-142 -53 -449 -226 -671 -378 -276 -189 -525 -391 -700
-566 -175 -176 -286 -331 -335 -465 -42 -115 -11 -142 175 -149 140 -5 283 11
340 38 55 26 75 64 85 163 11 108 48 198 132 322 110 163 93 151 238 165 217
20 409 67 457 112 25 23 30 62 11 75 -7 4 -101 6 -208 5 l-195 -2 85 81 c166
160 412 356 605 482 113 74 150 109 142 131 -10 25 -72 19 -161 -14z"/>
<path d="M14433 3256 c-119 -27 -282 -110 -436 -220 -42 -30 -77 -54 -77 -52
0 2 25 46 55 97 30 51 55 103 55 115 0 45 -11 46 -322 39 -388 -8 -413 -10
-448 -43 -15 -15 -37 -56 -50 -92 -54 -159 -208 -413 -473 -783 -278 -389
-286 -401 -263 -433 13 -17 22 -17 222 -1 115 10 272 20 349 23 77 3 151 11
164 17 22 11 210 286 518 758 l102 156 58 5 c132 12 243 -19 338 -92 55 -42
96 -50 151 -30 68 26 259 256 322 388 40 85 36 113 -21 137 -52 21 -173 27
-244 11z"/>
<path d="M22140 3264 c-134 -17 -274 -57 -454 -130 -60 -25 -111 -43 -113 -40
-2 2 5 22 16 45 12 22 21 49 21 59 0 43 -11 44 -377 35 -405 -11 -400 -9 -429
-95 -26 -82 -77 -189 -140 -296 -70 -119 -249 -386 -341 -507 -68 -90 -68 -90
-148 -118 -96 -34 -290 -83 -361 -91 -29 -4 -63 -2 -78 4 -22 8 -26 16 -26 47
0 73 77 199 368 598 196 268 270 377 278 412 14 52 9 53 -340 47 -176 -3 -338
-10 -358 -15 -34 -9 -42 -19 -93 -109 -76 -135 -185 -298 -368 -552 -85 -117
-174 -242 -198 -278 -52 -74 -63 -79 -200 -82 -128 -3 -160 25 -145 126 12 75
114 231 387 587 170 221 199 272 178 311 -10 19 -21 19 -297 13 -387 -8 -409
-10 -442 -45 -14 -15 -33 -48 -40 -71 -16 -46 -147 -246 -305 -464 -52 -71
-129 -189 -171 -262 l-76 -132 -67 -24 c-154 -57 -425 -112 -481 -97 -53 14
-31 95 61 232 21 31 133 184 248 340 248 334 313 437 309 488 l-3 35 -165 3
c-91 1 -260 -1 -377 -6 -255 -9 -249 -6 -297 -132 -33 -88 -96 -209 -118 -227
-41 -33 -268 -83 -376 -83 -74 0 -76 8 -21 75 118 141 225 333 200 358 -11 11
-154 11 -414 1 -178 -8 -191 -12 -229 -87 -194 -382 -672 -901 -860 -932 -35
-6 -44 -4 -67 19 -23 24 -26 34 -25 99 0 56 7 89 32 152 72 183 208 380 393
571 113 116 144 163 121 186 -6 6 -132 7 -373 1 -354 -8 -365 -9 -401 -31
-100 -62 -347 -431 -451 -673 -87 -201 -100 -387 -39 -512 57 -115 149 -177
273 -185 323 -19 1121 356 1547 728 l83 73 97 -2 c126 -2 290 21 375 54 9 4
17 3 17 -1 0 -5 -86 -124 -191 -264 -202 -270 -241 -332 -243 -392 -4 -156
287 -201 719 -112 201 42 476 125 657 199 16 6 17 0 17 -53 -1 -72 17 -108 73
-145 89 -57 279 -60 515 -8 108 24 328 91 416 126 13 6 17 2 17 -17 0 -36 40
-90 81 -110 117 -55 401 -49 694 17 96 21 407 117 487 150 11 4 1 -17 -27 -60
-76 -113 -70 -118 158 -116 94 0 250 4 346 7 172 7 174 7 205 35 17 15 173
242 346 503 304 459 316 475 355 487 22 6 68 9 104 7 76 -5 107 -31 97 -83
-17 -84 -123 -263 -299 -503 -206 -281 -279 -406 -258 -441 4 -6 19 -13 32
-14 61 -5 626 16 642 24 9 6 29 33 43 62 15 29 102 167 194 307 191 293 250
389 313 516 50 100 40 93 159 110 56 7 114 -9 129 -38 28 -53 -8 -126 -230
-462 -245 -370 -266 -423 -198 -491 46 -46 117 -59 272 -52 229 12 506 71 761
163 248 89 370 162 362 218 -5 35 -54 31 -171 -13 -143 -53 -296 -91 -373 -91
-56 0 -65 3 -79 24 -31 46 -9 92 170 356 157 232 204 312 246 416 60 150 40
238 -69 291 -50 24 -68 28 -142 27 -156 -2 -356 -54 -609 -156 -132 -54 -141
-53 -141 3 0 96 -160 172 -320 153z"/>
</g>
</svg>
